<?xml version="1.0" encoding="utf-8"?>
<!-- Generator: Adobe Illustrator 18.0.0, SVG Export Plug-In . SVG Version: 6.00 Build 0)  -->
<!DOCTYPE svg PUBLIC "-//W3C//DTD SVG 1.1//EN" "http://www.w3.org/Graphics/SVG/1.1/DTD/svg11.dtd">
<svg version="1.1" id="Layer_1" xmlns="http://www.w3.org/2000/svg" xmlns:xlink="http://www.w3.org/1999/xlink" x="0px" y="0px"
	 viewBox="0 0 500 500" enable-background="new 0 0 500 500" xml:space="preserve">
<line display="none" fill="#214497" x1="171.2" y1="464.4" x2="179.9" y2="464.4"/>
<line display="none" fill="#214497" x1="311.5" y1="452" x2="318.4" y2="452"/>
<path fill="none" d="M106.8,468.8c0.2,0.3,0.3,0.5,0.5,0.8C107.1,469.4,107,469.1,106.8,468.8z"/>
<path fill="#214497" d="M106.7,468.8C106.7,468.8,106.8,468.8,106.7,468.8C106.8,468.8,106.7,468.8,106.7,468.8z"/>
<g>
	<circle fill="#FCD927" cx="245.9" cy="314.7" r="119.9"/>
	<path fill="#2B3C90" d="M206.2,370.7c0,0.6-0.5,1.1-1.1,1.1l0,0c-0.6,0-1.1-0.5-1.1-1.1V236.2c0-0.6,0.5-1.1,1.1-1.1l0,0
		c0.6,0,1.1,0.5,1.1,1.1V370.7z"/>
	<radialGradient id="SVGID_1_" cx="245.8745" cy="314.6519" r="102.0816" gradientUnits="userSpaceOnUse">
		<stop  offset="0" style="stop-color:#2B3C90"/>
		<stop  offset="0.2086" style="stop-color:#2A398B"/>
		<stop  offset="0.4678" style="stop-color:#2A347F"/>
		<stop  offset="0.7526" style="stop-color:#282A6E"/>
		<stop  offset="1" style="stop-color:#241F5B"/>
	</radialGradient>
	<circle fill="url(#SVGID_1_)" cx="245.9" cy="314.7" r="102.1"/>
	<path fill="#FCD927" d="M374.2,416.3c-25.2,10.5-47.8-10.2-58.5-22.7c-6.3-7.8-15.8-20.2-24.9-37.7c-15.8-30.6-26.3-40.4-35.4-40.9
		c0,0,40-0.5,44.4-33.4c0.6-4.6,0-18.8,0-18.8s-3.4-33.7-50-37.2c-16.3-1.2-65.3,0-65.3,0l-4.9,5.8h14.1c0,0,5.1,1.4,5.4,7.8v125.7
		c0,0-0.6,4.7-5.4,5.5l-17-0.1v6.6H241v-2.7h0v-4.1h-15.3c-2.4-0.7-4.2-1.8-4.5-3.8V297v-46.9c0,0-0.3-2-0.8-4.4
		c6.4-6.2,15.1-10.1,24.7-10.1h0c19.5,0,35.4,15.8,35.4,35.4c0,10.4-4.5,19.7-11.6,26.2c-1.5,1.4-3.2,2.7-5,3.8
		c-4.2,2.4-10,4.3-18.3,5.4c-0.2,0-0.3,0-0.5,0h-19.6v10.1h10.4c0,0,11,1.1,25.2,32.6c3.5,7.7,7.8,15.5,12.3,22.8
		c0.1,0.2,0.3,0.5,0.4,0.7c1.4,2.1,2.8,4.3,4.4,6.6c8.8,12.8,21,25.2,36.2,34l0,0c0,0,33.9,24,61,10.1c2.2-0.9,4.3-2.3,6.4-4.1
		c0,0,0,0,0,0h0c0.7-0.6,1.3-1.2,2-1.9C383.8,417.2,386.9,407.4,374.2,416.3z"/>
	<path fill="#FCD927" d="M294.6,248.9c0,0-15.8,72.8,0,47.2C310.4,270.5,294.6,248.9,294.6,248.9z"/>
	<polygon fill="#FCD927" points="212.3,368.4 212.2,307.1 212,276.4 211.6,245.8 211.6,245.7 211.6,245.7 206.8,241.9 206.4,273.5 
		206.2,305.1 206,336.7 206,368.4 206,369.2 206.8,369.2 211.5,369.2 212.3,369.2 	"/>
	<path fill="#FCD927" d="M256.8,325.3c0,0,2.6,3.9,6.6,9.8c3.9,5.9,9.1,13.7,14.4,21.6c2.6,3.9,5.2,7.8,7.7,11.5
		c1.2,1.8,2.4,3.6,3.6,5.3c1.2,1.7,2.3,3.2,3.3,4.7c1,1.4,2,2.7,2.8,3.9c0.9,1.1,1.6,2.1,2.3,2.9c1.3,1.6,2.1,2.5,2.1,2.5
		s-0.8-0.8-2.3-2.3c-0.7-0.8-1.5-1.7-2.4-2.8c-0.9-1.1-1.9-2.4-3-3.8c-2.1-2.8-4.6-6.1-7.2-9.7c-2.5-3.6-5.2-7.5-7.8-11.4
		c-2.6-3.9-5.2-7.9-7.5-11.6c-2.4-3.7-4.5-7.3-6.4-10.3c-1.9-3-3.3-5.6-4.4-7.3C257.4,326.3,256.8,325.3,256.8,325.3z"/>
	<path fill="#FCD927" d="M283,251c0,0,1.9,2.3,3.7,6.3c0.9,2,1.9,4.4,2.6,7.1c0.3,1.4,0.7,2.8,0.9,4.2c0.2,1.5,0.3,3,0.4,4.5
		c0,1.5,0,3-0.2,4.5c-0.1,0.7-0.2,1.5-0.3,2.2c-0.1,0.7-0.3,1.4-0.5,2.1c-0.3,1.4-0.9,2.7-1.4,3.9c-0.5,1.2-1.1,2.3-1.8,3.2
		c-0.6,1-1.3,1.7-1.9,2.4c-0.6,0.7-1.2,1.2-1.7,1.6c-1,0.8-1.6,1.3-1.6,1.3s0.4-0.6,1.1-1.7c0.3-0.5,0.7-1.2,1.2-1.9
		c0.4-0.8,0.9-1.6,1.3-2.6c0.2-0.5,0.4-1,0.6-1.5c0.2-0.5,0.4-1.1,0.6-1.6c0.4-1.1,0.6-2.4,0.9-3.6c0.3-1.3,0.4-2.6,0.5-4
		c0.1-1.4,0.1-2.7,0.1-4.1c0-1.4-0.1-2.8-0.3-4.2c-0.2-1.4-0.3-2.7-0.6-4c-0.5-2.6-1-5-1.6-7.1C284,253.8,283,251,283,251z"/>
	<path fill="#FCD927" stroke="#FCD927" stroke-miterlimit="10" d="M133,315.9c0,0,0-0.7,0-2c0-1.3-0.1-3.1,0.1-5.5
		c0.1-1.2,0.1-2.5,0.2-4c0.2-1.4,0.3-3,0.5-4.6c0.4-3.3,1-7,1.9-11c0.4-2,1-4.1,1.6-6.2c0.7-2.1,1.3-4.3,2.1-6.5
		c1.5-4.5,3.6-9,6-13.6c2.4-4.6,5.2-9.1,8.4-13.6c3.2-4.4,6.7-8.6,10.6-12.7c3.9-4,8-7.7,12.3-11.1c4.3-3.4,8.9-6.3,13.4-8.9
		c4.6-2.4,9.2-4.6,13.7-6.1c2.2-0.9,4.5-1.4,6.6-2.1c2.2-0.5,4.3-1.1,6.3-1.5c4.1-0.8,7.8-1.4,11.2-1.7c1.7-0.1,3.2-0.2,4.7-0.3
		c1.5,0,2.8,0,4,0c2.4,0,4.3,0.1,5.6,0.2c1.3,0.1,2,0.1,2,0.1c0.1,0,0.2,0.1,0.2,0.3c0,0.1-0.1,0.2-0.2,0.2l0,0c0,0-0.7,0.1-1.9,0.2
		c-1.3,0.2-3.1,0.2-5.5,0.7c-1.2,0.2-2.5,0.4-3.9,0.6c-1.4,0.3-2.9,0.5-4.5,0.8c-1.6,0.3-3.3,0.7-5.1,1.1c-1.8,0.4-3.6,1-5.6,1.5
		c-1.9,0.5-3.9,1.2-6,1.9c-2,0.8-4.1,1.4-6.2,2.4c-4.2,1.7-8.6,3.8-13,6.1c-4.4,2.4-8.8,5.1-13.1,8.1c-4.3,3.1-8.4,6.5-12.3,10.2
		c-3.8,3.7-7.4,7.8-10.6,11.9c-3.2,4.2-6,8.6-8.6,12.9c-2.4,4.4-4.6,8.8-6.3,13.1c-0.9,2.1-1.6,4.3-2.4,6.3c-0.6,2.1-1.3,4.1-1.8,6
		c-1.1,3.9-1.8,7.6-2.4,10.8c-0.2,1.6-0.5,3.2-0.7,4.6c-0.1,1.4-0.3,2.7-0.4,3.9c-0.3,2.4-0.3,4.2-0.4,5.5c-0.1,1.3-0.1,2-0.1,2
		c0,0.1-0.1,0.2-0.3,0.2C133.1,316.2,133,316.1,133,315.9z"/>
	<path fill="#FCD927" stroke="#FCD927" stroke-miterlimit="10" d="M325.4,236.1c0,0,0.5,0.5,1.4,1.4c0.9,0.9,2.3,2.2,3.8,4
		c0.8,0.9,1.7,1.9,2.6,3c0.9,1.1,1.9,2.3,2.9,3.6c2,2.6,4.2,5.7,6.5,9.2c1.1,1.7,2.2,3.6,3.3,5.5c1,2,2.2,4,3.1,6.1
		c2.1,4.2,3.8,8.9,5.4,13.8c1.5,4.9,2.8,10.1,3.7,15.5c0.8,5.4,1.3,10.9,1.5,16.4c0.1,5.5-0.3,11.1-0.9,16.5
		c-0.7,5.4-1.8,10.7-3.2,15.7c-1.6,5-3.3,9.7-5.4,14c-1,2.2-2.2,4.2-3.2,6.2c-1.2,1.9-2.2,3.8-3.4,5.5c-2.3,3.5-4.6,6.5-6.7,9.1
		c-1.1,1.3-2.1,2.5-3.1,3.5c-1,1-2,2-2.8,2.8c-1.7,1.7-3.1,2.9-4.1,3.8c-1,0.8-1.5,1.3-1.5,1.3c-0.1,0.1-0.3,0.1-0.3,0
		c-0.1-0.1-0.1-0.2,0-0.3l0,0c0,0,0.4-0.5,1.2-1.5c0.8-1,2-2.4,3.4-4.3c0.7-1,1.5-2,2.3-3.2c0.8-1.2,1.7-2.4,2.6-3.8
		c0.9-1.4,1.8-2.9,2.8-4.4c1-1.5,1.9-3.3,2.9-5c1-1.8,1.9-3.6,2.9-5.6c0.9-2,1.9-4,2.7-6.1c1.8-4.2,3.4-8.8,4.8-13.5
		c1.4-4.8,2.6-9.8,3.5-15c0.9-5.2,1.3-10.5,1.5-15.9c0.1-5.3-0.3-10.7-0.9-15.9c-0.7-5.2-1.8-10.3-3.1-15.2c-1.4-4.8-3-9.5-4.8-13.7
		c-0.8-2.2-1.9-4.2-2.8-6.1c-1-1.9-2-3.8-3-5.6c-2-3.5-4.1-6.6-6-9.3c-1-1.3-1.9-2.6-2.8-3.7c-0.9-1.1-1.7-2.1-2.5-3
		c-1.5-1.9-2.8-3.2-3.6-4.1c-0.9-0.9-1.3-1.4-1.3-1.4c-0.1-0.1-0.1-0.3,0-0.3C325.1,236,325.3,236,325.4,236.1z"/>
</g>
<g>
	<g>
		<defs>
			<path id="XMLID_1_" d="M415.6,70.7c0,0-25.6-12.3-44.6,19.9c0,0-6.6-35-30.4-22.2c-23.7,12.8-13.3,52.6,2.9,38.4
				c0,0,31.6,3.8-10.4,41.7l-15.2-39.9l-37,33.7l-19.4-20.9c0,0-4.7-7.6,1.9-13.8l17.1-17.1c0,0,6.2-2.4,9.5,3.3l8.5,12.3
				c0,0,37-35.1,8.5-53.1C280.9,48.4,269.5,64,269.5,64s-7.6,2.8-6.2-7.6c0,0,6.3-24.9-12.8-42.4c-0.6-0.6-1.2-1.1-1.9-1.6
				c-0.7,0.5-1.3,1.1-1.9,1.6c-19.1,17.6-12.8,42.4-12.8,42.4c1.4,10.4-6.2,7.6-6.2,7.6s-11.4-15.7-37.5-10.9
				c-28.5,18,8.5,53.1,8.5,53.1l8.5-12.3c3.3-5.7,9.5-3.3,9.5-3.3l17.1,17.1c6.6,6.2,1.9,13.8,1.9,13.8l-19.5,20.9l-37-33.7
				l-15.2,39.9c-42-37.9-10.4-41.7-10.4-41.7c16.1,14.2,26.6-25.6,2.8-38.4c-23.7-12.7-30.4,22.2-30.4,22.2
				c-19-32.3-44.6-19.9-44.6-19.9c69.3,78.7,58.8,133.8,58.8,133.8c33.1-19.6,91-21.3,106.3-21.3c1,0,1.9,0,2.5,0c0.8,0,1.3,0,1.3,0
				v0c15.3,0.1,73.1,1.7,106.3,21.4C356.8,204.4,346.3,149.4,415.6,70.7z"/>
		</defs>
		<use xlink:href="#XMLID_1_"  overflow="visible" fill="#FCD927"/>
		<clipPath id="XMLID_3_">
			<use xlink:href="#XMLID_1_"  overflow="visible"/>
		</clipPath>
		<path clip-path="url(#XMLID_3_)" fill="#FCD927" stroke="#FCD927" stroke-miterlimit="10" d="M81.6,70.7c0,0,75.4,50.7,58.8,133.8
			L81.6,70.7z"/>
		<path clip-path="url(#XMLID_3_)" fill="#FCD927" stroke="#FCD927" stroke-miterlimit="10" d="M414.2,72.3
			c0,0-75.4,50.7-58.8,133.8L414.2,72.3z"/>
		<path clip-path="url(#XMLID_3_)" fill="#FCD927" d="M134.4,207c0,0,114.5-85.9,224.9,0C359.3,207,237.7,263.1,134.4,207z"/>
		<path clip-path="url(#XMLID_3_)" fill="#FCD927" d="M138.2,68.4c0,0,36.9-1.8,26.9,40.2l11.6-6.9l-2.4-46.6L138.2,68.4z"/>
		<path clip-path="url(#XMLID_3_)" fill="#FCD927" d="M361.4,69.2c0,0-36.9-1.8-26.9,40.2l-11.6-6.9l2.4-46.6L361.4,69.2z"/>
		<path clip-path="url(#XMLID_3_)" fill="#FCD927" d="M235.4,61.5c-3.5-28.2,13.6-48.4,13.8-48.6l1.4-1.6l-66.5,8.3L215.1,46
			l-24.8,7.1c0,0,28.3,1.1,37.2,12.6c0,0,5.9,2.8,8-2.4"/>
		<path clip-path="url(#XMLID_3_)" fill="#FCD927" d="M262.2,61.5c3.5-28.2-13.6-48.4-13.8-48.6l-1.4-1.6l66.5,8.3L282.6,46
			l24.8,7.1c0,0-28.3,1.1-37.2,12.6c0,0-5.9,2.8-8-2.4"/>
	</g>
	<polygon fill="#FCD927" points="179.4,108.6 214.9,145.2 216.3,142.3 	"/>
	<polygon fill="#FCD927" points="318.5,108.6 283,145.2 281.5,142.3 	"/>
</g>
</svg>
