<?xml version="1.0" encoding="utf-8"?>
<!-- Generator: Adobe Illustrator 18.0.0, SVG Export Plug-In . SVG Version: 6.00 Build 0)  -->
<!DOCTYPE svg PUBLIC "-//W3C//DTD SVG 1.1//EN" "http://www.w3.org/Graphics/SVG/1.1/DTD/svg11.dtd">
<svg version="1.1" id="Layer_1" xmlns="http://www.w3.org/2000/svg" xmlns:xlink="http://www.w3.org/1999/xlink" x="0px" y="0px"
	 viewBox="0 0 500 500" enable-background="new 0 0 500 500" xml:space="preserve">
<g>
	<path fill="#FFFFFF" d="M374.2,416.3c-25.2,10.5-47.8-10.2-58.5-22.7c-6.3-7.8-15.8-20.2-24.9-37.7c-15.8-30.6-26.3-40.4-35.4-40.9
		c0,0,40-0.5,44.4-33.4c0.6-4.6,0-18.8,0-18.8s-3.4-33.7-50-37.2c-16.3-1.2-65.3,0-65.3,0l-4.9,5.8h14.1c0,0,5.1,1.4,5.4,7.8v125.7
		c0,0-0.6,4.7-5.4,5.5l-17-0.1v6.6H241v-2.7h0v-4.1h-15.3c-2.4-0.7-4.2-1.8-4.5-3.8V297v-46.9c0,0-0.3-2-0.8-4.4
		c6.4-6.2,15.1-10.1,24.7-10.1h0c19.5,0,35.4,15.8,35.4,35.4c0,10.4-4.5,19.7-11.6,26.2c-1.5,1.4-3.2,2.7-5,3.8
		c-4.2,2.4-10,4.3-18.3,5.4c-0.2,0-0.3,0-0.5,0h-19.6v10.1h10.4c0,0,11,1.1,25.2,32.6c3.5,7.7,7.8,15.5,12.3,22.8
		c0.1,0.2,0.3,0.5,0.4,0.7c1.4,2.1,2.8,4.3,4.4,6.6c8.8,12.8,21,25.2,36.2,34l0,0c0,0,33.9,24,61,10.1c2.2-0.9,4.3-2.3,6.4-4.1
		c0,0,0,0,0,0h0c0.7-0.6,1.3-1.2,2-1.9C383.8,417.2,386.9,407.4,374.2,416.3z"/>
</g>
<g>
	<g>
		<defs>
			<path id="XMLID_1_" d="M415.6,70.7c0,0-25.6-12.3-44.6,19.9c0,0-6.6-35-30.4-22.2c-23.7,12.8-13.3,52.6,2.9,38.4
				c0,0,31.6,3.8-10.4,41.7l-15.2-39.9l-37,33.7l-19.4-20.9c0,0-4.7-7.6,1.9-13.8l17.1-17.1c0,0,6.2-2.4,9.5,3.3l8.5,12.3
				c0,0,37-35.1,8.5-53.1C280.9,48.4,269.5,64,269.5,64s-7.6,2.8-6.2-7.6c0,0,6.3-24.9-12.8-42.4c-0.6-0.6-1.2-1.1-1.9-1.6
				c-0.7,0.5-1.3,1.1-1.9,1.6c-19.1,17.6-12.8,42.4-12.8,42.4c1.4,10.4-6.2,7.6-6.2,7.6s-11.4-15.7-37.5-10.9
				c-28.5,18,8.5,53.1,8.5,53.1l8.5-12.3c3.3-5.7,9.5-3.3,9.5-3.3l17.1,17.1c6.6,6.2,1.9,13.8,1.9,13.8l-19.5,20.9l-37-33.7
				l-15.2,39.9c-42-37.9-10.4-41.7-10.4-41.7c16.1,14.2,26.6-25.6,2.8-38.4c-23.7-12.7-30.4,22.2-30.4,22.2
				c-19-32.3-44.6-19.9-44.6-19.9c69.3,78.7,58.8,133.8,58.8,133.8c33.1-19.6,91-21.3,106.3-21.3c1,0,1.9,0,2.5,0c0.8,0,1.3,0,1.3,0
				v0c15.3,0.1,73.1,1.7,106.3,21.4C356.8,204.4,346.3,149.4,415.6,70.7z"/>
		</defs>
		<use xlink:href="#XMLID_1_"  overflow="visible" fill="#FFFFFE"/>
		<clipPath id="XMLID_3_">
			<use xlink:href="#XMLID_1_"  overflow="visible"/>
		</clipPath>
	</g>
</g>
<circle fill="none" stroke="#FFFFFF" stroke-width="15" stroke-miterlimit="10" cx="246.3" cy="317.8" r="113.3"/>
</svg>
